# xmcd CD database file
#
# Track frame offsets:
#	150
#	8172
#	33285
#	47952
#	73302
#	95242
#	121817
#	150802
#
# Disc length: 2502 seconds
#
# Revision: 0
# Processed by: cddbd v1.5.2PL0 Copyright (c) Steve Scherf et al.
# Submitted via: CDex 1.51
#
DISCID=6109c408
DTITLE=Yuzuru Sera - The Days Of Wine And Women  -1-
DYEAR=2004
DGENRE=Jazz
TTITLE0=The Days Of Wine And Roses
TTITLE1=You Do Sometihng To Me
TTITLE2=Begin The Bguin
TTITLE3=I'll Remenber April
TTITLE4=Body And Soul
TTITLE5=Rosetta
TTITLE6=Daahoud
TTITLE7=C.Jam Blues
EXTD=YEAR: 2004
EXTT0=
EXTT1=
EXTT2=
EXTT3=
EXTT4=
EXTT5=
EXTT6=
EXTT7=
PLAYORDER=
